<svg width="25" height="24" viewBox="0 0 25 24" fill="none" xmlns="http://www.w3.org/2000/svg">
<g clip-path="url(#clip0)">
<path d="M6.29049 20.6579L5.0177 17.0779H20.6056L19.3328 20.6579H6.29049Z" fill="#EF8A2E"/>
<path d="M5.01773 17.0779L1.31598 6.65212L8.1059 10.6074L12.8117 3.34084L17.5175 10.6074L24.3074 6.65212L20.6056 17.0779H5.01773Z" fill="#F4D22B"/>
<path d="M24.0488 6.21604L17.6798 9.92792L13.2377 3.06194C13.0857 2.82672 12.7719 2.75915 12.5366 2.91115C12.4762 2.95013 12.4248 3.00154 12.3858 3.06194L7.94367 9.92792L1.57463 6.21604C1.33364 6.07335 1.0226 6.15309 0.879984 6.39409C0.802906 6.52435 0.78801 6.68218 0.839353 6.82454L5.8139 20.8303C5.88476 21.0331 6.07574 21.1692 6.29056 21.1701H19.3329C19.5477 21.1693 19.7387 21.0331 19.8096 20.8303L24.779 6.82454C24.8741 6.56111 24.7376 6.27048 24.4742 6.1754C24.3318 6.12406 24.174 6.13889 24.0437 6.21604H24.0488ZM18.9779 20.1559H6.64552L5.71248 17.585H19.911L18.9779 20.1559ZM20.2456 16.5708H5.3778L2.2592 7.78801L7.83718 11.0486C8.07076 11.184 8.3695 11.1127 8.51668 10.8863L12.7965 4.29417L17.0763 10.8863C17.2235 11.1127 17.5223 11.184 17.7558 11.0486L23.3338 7.78801L20.2456 16.5708Z" fill="#23150B"/>
</g>
<defs>
<clipPath id="clip0">
<rect width="24" height="24" fill="white" transform="translate(0.809204)"/>
</clipPath>
</defs>
</svg>
