<svg width="228" height="55" viewBox="0 0 228 55" fill="none" xmlns="http://www.w3.org/2000/svg">
<path d="M11.298 40.2385C13.2547 42.5666 15.697 44.4384 18.4537 45.7225C21.2104 47.0067 24.2146 47.6721 27.2557 47.6721C30.2969 47.6721 33.3011 47.0067 36.0578 45.7225C38.8145 44.4384 41.2568 42.5666 43.2134 40.2385L48.1346 44.3561C45.5782 47.4078 42.3839 49.8621 38.7766 51.5461C35.1693 53.23 31.2367 54.1027 27.2557 54.1027C23.2748 54.1027 19.3422 53.23 15.7349 51.5461C12.1276 49.8621 8.93329 47.4078 6.37692 44.3561L11.298 40.2385ZM23.6338 6.32861C20.6385 6.85836 17.7955 8.03733 15.3043 9.78276C12.8131 11.5282 10.7342 13.7978 9.21349 16.4321C7.69277 19.0665 6.76713 22.0018 6.50155 25.032C6.23596 28.0622 6.63688 31.1138 7.67614 33.9725L1.64865 36.1582C0.284822 32.4187 -0.242796 28.4257 0.102941 24.4604C0.448677 20.495 1.65937 16.6536 3.64978 13.2066C5.6402 9.75953 8.36196 6.79068 11.6235 4.50897C14.885 2.22725 18.607 0.688152 22.5275 0L23.6338 6.32861ZM46.8354 33.9725C47.8786 31.1139 48.2826 28.0614 48.0188 25.0299C47.755 21.9983 46.8299 19.0614 45.3086 16.426C43.7873 13.7906 41.7067 11.5207 39.2135 9.77615C36.7202 8.0316 33.8748 6.8548 30.8777 6.32861L31.984 0C35.9018 0.693354 39.6204 2.23564 42.8788 4.51862C46.1373 6.80161 48.8567 9.77 50.8462 13.2155C52.8358 16.661 54.0472 20.5001 54.3956 24.4635C54.744 28.4268 54.2208 32.4184 52.8628 36.1582L46.8354 33.9725Z" fill="#00CD55"/>
<path d="M28.8612 19.764V25.3754L32.5981 23.2185C32.6502 22.6278 32.8892 22.0692 33.2803 21.6236C33.6714 21.178 34.1943 20.8685 34.7732 20.7402C35.352 20.6119 35.9567 20.6714 36.4995 20.91C37.0423 21.1486 37.4949 21.5539 37.7918 22.0672C38.0886 22.5804 38.2141 23.1749 38.1502 23.7644C38.0863 24.3538 37.8363 24.9076 37.4363 25.3453C37.0364 25.7831 36.5074 26.082 35.9261 26.1987C35.3448 26.3154 34.7414 26.2439 34.2035 25.9945L28.8612 29.0785V37.8059C28.8612 38.0169 28.8196 38.2259 28.7388 38.4209C28.6581 38.6159 28.5397 38.793 28.3904 38.9423C28.2412 39.0915 28.064 39.2099 27.8691 39.2907C27.6741 39.3714 27.4651 39.413 27.2541 39.413C27.043 39.413 26.834 39.3714 26.639 39.2907C26.4441 39.2099 26.2669 39.0915 26.1177 38.9423C25.9684 38.793 25.85 38.6159 25.7693 38.4209C25.6885 38.2259 25.6469 38.0169 25.6469 37.8059V29.0751L20.3063 25.9911C19.7681 26.241 19.1642 26.3128 18.5824 26.1961C18.0006 26.0795 17.4712 25.7805 17.0708 25.3425C16.6705 24.9045 16.4201 24.3504 16.3561 23.7604C16.2921 23.1705 16.4177 22.5756 16.7148 22.0619C17.0118 21.5482 17.4649 21.1426 18.0081 20.9039C18.5513 20.6651 19.1565 20.6057 19.7358 20.7343C20.3151 20.8628 20.8383 21.1726 21.2296 21.6187C21.6209 22.0648 21.8598 22.624 21.9117 23.2151L25.6469 25.3754V19.764C25.1616 19.4226 24.7976 18.9354 24.6078 18.3731C24.418 17.8108 24.4122 17.2027 24.5913 16.6369C24.7704 16.0711 25.125 15.5771 25.6038 15.2264C26.0826 14.8758 26.6606 14.6868 27.2541 14.6868C27.8475 14.6868 28.4255 14.8758 28.9043 15.2264C29.3831 15.5771 29.7377 16.0711 29.9168 16.6369C30.0959 17.2027 30.0901 17.8108 29.9003 18.3731C29.7105 18.9354 29.3465 19.4226 28.8612 19.764Z" fill="white"/>
<path d="M124.482 19.5475C125.045 19.5696 125.595 19.3718 126.015 18.996C126.397 18.6131 126.612 18.0941 126.612 17.553C126.612 17.0118 126.397 16.4928 126.015 16.11C125.594 15.736 125.045 15.54 124.482 15.5635C123.917 15.5422 123.365 15.7398 122.941 16.115C122.75 16.3038 122.599 16.5285 122.495 16.7762C122.392 17.0239 122.339 17.2897 122.339 17.558C122.339 17.8264 122.392 18.0922 122.495 18.3399C122.599 18.5875 122.75 18.8123 122.941 19.0011C123.365 19.3763 123.917 19.5739 124.482 19.5525V19.5475ZM128.938 13.7517V20.5185C128.938 22.0083 128.551 23.1158 127.776 23.841C127.001 24.5661 125.868 24.9287 124.377 24.9287C123.621 24.9318 122.867 24.834 122.136 24.6378C121.502 24.4801 120.906 24.1971 120.383 23.8055L121.32 22.1138C121.706 22.4209 122.147 22.6507 122.62 22.7904C123.127 22.9537 123.657 23.0376 124.19 23.0391C125.007 23.0391 125.609 22.8553 125.995 22.4876C126.38 22.12 126.574 21.564 126.576 20.8196V20.4694C125.963 21.1461 125.107 21.4845 124.009 21.4845C123.296 21.4929 122.593 21.3243 121.962 20.9939C121.353 20.6771 120.844 20.1989 120.49 19.6118C120.133 18.9861 119.945 18.2783 119.945 17.558C119.945 16.8378 120.133 16.13 120.49 15.5043C120.844 14.9168 121.353 14.4385 121.962 14.1222C122.593 13.7913 123.296 13.6221 124.009 13.6299C125.188 13.6299 126.085 14.0179 126.698 14.7938V13.7467L128.938 13.7517ZM114.956 20.0651C115.233 20.0743 115.509 20.0244 115.766 19.9189C116.022 19.8133 116.253 19.6544 116.443 19.4527C116.83 19.0456 117.024 18.4998 117.025 17.8152C117.026 17.1306 116.832 16.5842 116.443 16.1759C116.253 15.9746 116.022 15.816 115.765 15.7104C115.509 15.6049 115.233 15.5548 114.956 15.5635C114.678 15.5551 114.401 15.6053 114.143 15.7108C113.886 15.8163 113.653 15.9748 113.461 16.1759C113.068 16.5831 112.872 17.1295 112.87 17.8152C112.869 18.5009 113.066 19.0467 113.461 19.4527C113.653 19.6533 113.886 19.8111 114.144 19.9158C114.402 20.0204 114.678 20.0696 114.956 20.0601V20.0651ZM114.956 21.9987C114.156 22.0116 113.365 21.8274 112.652 21.4625C111.993 21.1249 111.441 20.6099 111.059 19.9755C110.683 19.3175 110.485 18.5729 110.485 17.8152C110.485 17.0575 110.683 16.3129 111.059 15.6549C111.441 15.0204 111.993 14.5049 112.652 14.1662C113.365 13.8013 114.156 13.6171 114.956 13.6299C115.754 13.6165 116.543 13.8007 117.252 14.1662C117.908 14.5066 118.456 15.0219 118.837 15.6549C119.214 16.3125 119.412 17.0572 119.412 17.8152C119.412 18.5731 119.214 19.3179 118.837 19.9755C118.457 20.6084 117.908 21.1231 117.252 21.4625C116.542 21.8256 115.753 22.0075 114.956 21.992V21.9987ZM107.393 14.8192C107.682 14.4209 108.077 14.112 108.533 13.9277C109.059 13.7172 109.621 13.6143 110.187 13.6249V15.8004C109.925 15.7801 109.749 15.7699 109.658 15.7699C108.981 15.7699 108.453 15.9588 108.073 16.3366C107.693 16.7145 107.501 17.2812 107.498 18.0368V21.8735H105.143V13.7534H107.393V14.8192ZM101.098 13.9277H103.189V15.7327H101.159V21.8735H98.8023V15.7327H97.5488V13.9277H98.8023V13.5657C98.8023 12.6386 99.077 11.9056 99.6262 11.3665C100.175 10.8274 100.948 10.5556 101.944 10.5511C102.282 10.549 102.619 10.5871 102.949 10.6644C103.23 10.7254 103.499 10.8354 103.742 10.9892L103.123 12.6877C102.844 12.4939 102.51 12.3933 102.17 12.4001C101.457 12.4001 101.099 12.7948 101.098 13.5843V13.9277ZM92.917 20.0601C93.1941 20.0692 93.4699 20.0194 93.7263 19.9138C93.9827 19.8082 94.2137 19.6493 94.4039 19.4477C94.7908 19.0405 94.9848 18.4947 94.9859 17.8101C94.987 17.1255 94.793 16.5791 94.4039 16.1709C94.0082 15.7784 93.4735 15.5582 92.9161 15.5582C92.3588 15.5582 91.824 15.7784 91.4283 16.1709C91.0414 16.578 90.8475 17.1244 90.8463 17.8101C90.8452 18.4958 91.0392 19.0417 91.4283 19.4477C91.6188 19.6494 91.8501 19.8084 92.1067 19.914C92.3634 20.0196 92.6396 20.0694 92.917 20.0601ZM93.3246 13.6316C94.0451 13.6233 94.7553 13.8029 95.3851 14.1527C95.9994 14.4948 96.5048 15.0031 96.8434 15.6194C97.2072 16.2942 97.3897 17.052 97.3729 17.8186C97.3897 18.5851 97.2072 19.3429 96.8434 20.0178C96.5054 20.634 95.9998 21.1419 95.3851 21.4828C94.7541 21.8285 94.044 22.004 93.3246 21.992C92.2871 21.992 91.4711 21.6649 90.8768 21.0108V24.8019H88.5203V13.7467H90.7719V14.6822C91.355 13.9784 92.2059 13.626 93.3246 13.6249V13.6316ZM82.7195 20.4068C83.0958 20.4139 83.4668 20.3174 83.792 20.1277C84.1047 19.9419 84.3405 19.6502 84.4568 19.3056V18.4749H82.8413C81.8736 18.4749 81.3903 18.7919 81.3915 19.4257C81.3867 19.5651 81.4165 19.7036 81.4781 19.8287C81.5398 19.9539 81.6315 20.0618 81.745 20.1429C82.0329 20.3336 82.3747 20.4262 82.7195 20.4068ZM82.9005 13.6249C84.1591 13.6249 85.1262 13.9249 85.8017 14.5248C86.4773 15.1248 86.8156 16.0271 86.8167 17.2316V21.8735H84.6175V20.8585C84.1743 21.6142 83.3488 21.992 82.1409 21.992C81.5828 22.0058 81.0285 21.8973 80.5169 21.6739C80.0902 21.4897 79.726 21.1859 79.468 20.7993C79.2247 20.4214 79.0981 19.98 79.1043 19.5306C79.0897 19.187 79.1591 18.845 79.3065 18.5343C79.4539 18.2236 79.6748 17.9535 79.9502 17.7475C80.5141 17.3144 81.3926 17.0979 82.5858 17.0979H84.4619C84.4755 16.8782 84.4406 16.6582 84.3596 16.4536C84.2786 16.2489 84.1536 16.0646 83.9933 15.9137C83.682 15.6363 83.2134 15.4993 82.5892 15.4993C82.1554 15.4993 81.7244 15.5678 81.312 15.7023C80.9271 15.8209 80.5667 16.0077 80.2479 16.2538L79.4021 14.6077C79.8872 14.2753 80.4264 14.0298 80.9956 13.882C81.6177 13.7104 82.2602 13.6239 82.9055 13.6249H82.9005ZM74.4978 15.4079C74.0096 15.3923 73.5321 15.5533 73.153 15.8613C72.7839 16.176 72.5466 16.618 72.4881 17.0996H76.4907C76.43 16.6207 76.1929 16.1816 75.8258 15.8681C75.454 15.5581 74.9818 15.3945 74.4978 15.4079ZM78.7118 17.8406C78.7118 17.8699 78.6966 18.0813 78.6662 18.4749H72.5186C72.6174 18.9585 72.8984 19.3856 73.3035 19.6676C73.7582 19.9723 74.2976 20.1257 74.8446 20.1057C75.2281 20.1129 75.6096 20.0486 75.9696 19.9163C76.3114 19.7818 76.6222 19.5792 76.8831 19.3208L78.1384 20.6741C77.3715 21.5504 76.2533 21.9886 74.7837 21.9886C73.9424 22.0051 73.1091 21.8213 72.3528 21.4523C71.6778 21.1227 71.1113 20.6067 70.7203 19.9653C70.333 19.3121 70.1344 18.5643 70.1468 17.805C70.1357 17.0512 70.3299 16.3085 70.7085 15.6566C71.0793 15.0241 71.618 14.5065 72.2648 14.1611C72.9402 13.8125 73.6886 13.6288 74.4487 13.625C75.2088 13.6212 75.9589 13.7974 76.6378 14.1391C77.2767 14.4734 77.8054 14.985 78.1603 15.6126C78.5381 16.2934 78.7284 17.0622 78.7118 17.8406ZM62.2822 11.2988H64.7283V19.879H70.0318V21.8735H62.2839L62.2822 11.2988Z" fill="white"/>
<path d="M221.064 33.5242C220.261 33.4986 219.476 33.7635 218.853 34.2702C218.247 34.7862 217.857 35.5106 217.76 36.3003H224.343C224.242 35.5117 223.853 34.7885 223.25 34.2702C222.638 33.7597 221.861 33.4902 221.064 33.5124V33.5242ZM228 37.5115C228 37.5611 227.975 37.9091 227.926 38.5553H217.818C217.979 39.3509 218.441 40.0534 219.108 40.5159C219.785 40.9964 220.631 41.2366 221.646 41.2366C222.272 41.2503 222.895 41.1494 223.485 40.9389C224.047 40.7159 224.558 40.3822 224.989 39.9577L227.049 42.1924C225.791 43.6326 223.953 44.3527 221.536 44.3527C220.152 44.3809 218.781 44.0788 217.537 43.4713C216.427 42.9293 215.497 42.0803 214.856 41.0251C214.218 39.9513 213.891 38.7214 213.912 37.4726C213.894 36.2302 214.215 35.0065 214.842 33.9336C215.452 32.8935 216.338 32.0423 217.402 31.4739C218.512 30.9011 219.742 30.5991 220.992 30.5927C222.241 30.5862 223.475 30.8754 224.591 31.4367C225.638 31.9879 226.505 32.8288 227.086 33.8592C227.708 34.9785 228.021 36.2432 227.993 37.5233L228 37.5115ZM206.866 44.3409C205.534 44.3629 204.216 44.0604 203.027 43.4595C201.931 42.9075 201.011 42.0603 200.371 41.0133C199.88 40.2218 199.559 39.3371 199.427 38.415C199.295 37.493 199.356 36.5536 199.606 35.6562C199.855 34.7589 200.288 33.923 200.877 33.2014C201.466 32.4798 202.198 31.8881 203.027 31.4637C204.217 30.8637 205.534 30.5612 206.866 30.5824C208.273 30.5824 209.503 30.8761 210.554 31.4637C211.579 32.0304 212.386 32.9244 212.844 34.0029L209.838 35.6185C209.142 34.3926 208.141 33.7796 206.834 33.7796C206.37 33.7655 205.908 33.8463 205.477 34.0171C205.045 34.1878 204.653 34.445 204.325 34.7727C203.664 35.4358 203.333 36.338 203.332 37.4794C203.331 38.6207 203.662 39.5229 204.325 40.1861C204.653 40.5138 205.045 40.7709 205.477 40.9416C205.908 41.1124 206.37 41.1932 206.834 41.1791C208.158 41.1791 209.159 40.5667 209.838 39.3419L212.844 40.9812C212.367 42.0358 211.561 42.9072 210.547 43.4646C209.495 44.0567 208.265 44.3527 206.859 44.3527L206.866 44.3409ZM193.628 32.5447C194.103 31.8895 194.752 31.3817 195.503 31.0797C196.367 30.7335 197.292 30.5644 198.223 30.5824V34.1721C197.792 34.14 197.502 34.1231 197.353 34.1231C196.244 34.1231 195.374 34.4332 194.745 35.0535C194.115 35.6738 193.801 36.6053 193.803 37.8482V44.1531H189.927V30.7887H193.628V32.5447ZM186.32 30.7887V44.1531H182.644V42.5629C182.138 43.1375 181.51 43.5918 180.805 43.8926C180.075 44.2024 179.289 44.3585 178.496 44.351C176.741 44.351 175.351 43.8435 174.324 42.8285C173.298 41.8135 172.785 40.3146 172.785 38.332V30.7887H176.659V37.767C176.659 39.9188 177.561 40.9947 179.366 40.9947C180.293 40.9947 181.038 40.6924 181.6 40.0879C182.163 39.4835 182.445 38.5857 182.446 37.3948V30.7887H186.32ZM162.949 41.174C163.405 41.1886 163.859 41.1066 164.28 40.9335C164.702 40.7603 165.082 40.4998 165.396 40.1692C166.033 39.4925 166.351 38.5942 166.351 37.4743C166.351 36.3544 166.033 35.4561 165.396 34.7794C165.083 34.4467 164.703 34.1842 164.282 34.0092C163.86 33.8342 163.406 33.7508 162.949 33.7644C162.491 33.7515 162.036 33.8351 161.612 34.01C161.189 34.1849 160.807 34.4471 160.491 34.7794C159.845 35.4493 159.522 36.3476 159.522 37.4743C159.522 38.601 159.845 39.4992 160.491 40.1692C160.808 40.4995 161.19 40.7597 161.614 40.9328C162.037 41.1059 162.492 41.1881 162.949 41.174ZM162.949 44.3527C161.634 44.3764 160.333 44.0754 159.162 43.4764C158.078 42.9205 157.17 42.0734 156.541 41.0302C155.923 39.9485 155.597 38.7239 155.597 37.4777C155.597 36.2315 155.923 35.0068 156.541 33.9251C157.171 32.8828 158.079 32.0359 159.162 31.4789C160.333 30.879 161.634 30.5763 162.949 30.5976C164.261 30.5751 165.558 30.8779 166.724 31.4789C167.802 32.0375 168.705 32.8828 169.334 33.9217C169.953 35.0035 170.278 36.2281 170.278 37.4743C170.278 38.7205 169.953 39.9451 169.334 41.0268C168.708 42.0694 167.804 42.9174 166.724 43.4764C165.558 44.0764 164.261 44.3776 162.949 44.3527ZM146.731 44.4525C145.383 44.456 144.041 44.2681 142.746 43.8942C141.463 43.5198 140.433 43.0354 139.653 42.4411L141.02 39.4163C141.83 39.9949 142.727 40.4393 143.678 40.7325C144.672 41.0583 145.711 41.2256 146.757 41.2281C147.899 41.2281 148.745 41.059 149.294 40.7206C149.843 40.3823 150.116 39.9312 150.113 39.3673C150.116 39.17 150.074 38.9747 149.99 38.7961C149.907 38.6176 149.783 38.4605 149.629 38.3371C149.261 38.0404 148.84 37.817 148.387 37.679C147.881 37.5132 147.198 37.3311 146.339 37.1326C145.236 36.8831 144.149 36.5679 143.084 36.1886C142.243 35.8744 141.496 35.351 140.914 34.6678C140.309 33.9719 140.007 33.0443 140.007 31.885C139.997 30.9086 140.282 29.9521 140.826 29.141C141.371 28.3223 142.195 27.6726 143.297 27.1922C144.399 26.7118 145.744 26.4715 147.334 26.4715C148.43 26.4697 149.523 26.6032 150.587 26.8691C151.568 27.1024 152.506 27.4877 153.368 28.011L152.126 31.0662C150.52 30.156 148.914 29.701 147.308 29.701C146.18 29.701 145.349 29.8831 144.813 30.2474C144.565 30.3966 144.36 30.6079 144.219 30.8603C144.077 31.1127 144.004 31.3977 144.006 31.687C144.006 32.2825 144.316 32.7252 144.936 33.015C145.557 33.3048 146.505 33.5907 147.78 33.8727C148.882 34.1221 149.969 34.4373 151.033 34.8166C151.87 35.1254 152.617 35.6376 153.207 36.307C153.812 36.9837 154.114 37.9023 154.114 39.0628C154.119 40.0344 153.827 40.9843 153.276 41.7847C152.722 42.6035 151.889 43.2531 150.779 43.7335C149.67 44.214 148.32 44.4536 146.731 44.4525ZM124.673 30.5942C126.33 30.5942 127.667 31.091 128.684 32.0846C129.702 33.0782 130.209 34.5516 130.207 36.505V44.1531H126.333V37.0987C126.333 36.0397 126.101 35.2503 125.636 34.7304C125.171 34.2105 124.501 33.9499 123.624 33.9488C122.649 33.9488 121.871 34.2511 121.29 34.8556C120.709 35.4601 120.423 36.36 120.431 37.5555V44.1531H116.553V30.7887H120.258V32.3519C120.788 31.7782 121.442 31.3327 122.17 31.0493C122.967 30.7382 123.817 30.5837 124.673 30.5942ZM107.046 33.5242C106.243 33.4984 105.458 33.7634 104.835 34.2702C104.229 34.7858 103.839 35.5104 103.742 36.3003H110.323C110.223 35.5113 109.834 34.7877 109.23 34.2702C108.617 33.7642 107.84 33.499 107.046 33.5242ZM113.982 37.5233C113.982 37.5724 113.958 37.9209 113.907 38.5671H103.791C103.952 39.3632 104.416 40.0659 105.084 40.5278C105.76 41.0082 106.606 41.2484 107.621 41.2484C108.25 41.259 108.876 41.154 109.467 40.9389C110.028 40.7158 110.539 40.3822 110.969 39.9577L113.031 42.1924C111.773 43.6326 109.934 44.3527 107.516 44.3527C106.136 44.3809 104.769 44.0806 103.527 43.4764C102.417 42.9344 101.486 42.0854 100.844 41.0302C100.206 39.9564 99.8796 38.7265 99.9002 37.4777C99.8787 36.2351 100.197 35.0102 100.821 33.9353C101.43 32.8949 102.315 32.0436 103.378 31.4756C104.498 30.8797 105.749 30.5765 107.017 30.5942C108.253 30.5768 109.474 30.8675 110.57 31.44C111.617 31.9911 112.484 32.8321 113.067 33.8625C113.688 34.9809 114.001 36.2443 113.973 37.5233H113.982ZM90.9766 41.174C91.4321 41.1886 91.8856 41.1066 92.3073 40.9335C92.7289 40.7603 93.109 40.4998 93.4228 40.1692C94.06 39.4925 94.3786 38.5942 94.3786 37.4743C94.3786 36.3544 94.06 35.4561 93.4228 34.7794C92.7718 34.1348 91.8927 33.7732 90.9766 33.7732C90.0605 33.7732 89.1814 34.1348 88.5304 34.7794C87.8932 35.4493 87.5746 36.3476 87.5746 37.4743C87.5746 38.601 87.8932 39.4992 88.5304 40.1692C88.8441 40.4998 89.2243 40.7603 89.6459 40.9335C90.0675 41.1066 90.521 41.1886 90.9766 41.174ZM91.6533 30.5942C92.8364 30.581 94.0026 30.8767 95.0366 31.4519C96.0478 32.0126 96.8799 32.8477 97.4371 33.8608C98.008 34.9798 98.3057 36.2181 98.3057 37.4743C98.3057 38.7305 98.008 39.9688 97.4371 41.0877C96.8799 42.0997 96.0492 42.9345 95.04 43.4967C94.0056 44.0706 92.8396 44.3656 91.6567 44.3527C89.9514 44.3527 88.6105 43.8147 87.6338 42.7388V48.9727H83.7598V30.7887H87.4562V32.3282C88.4126 31.1733 89.8093 30.5953 91.6465 30.5942H91.6533ZM71.4883 41.0251C72.4586 41.0372 73.415 40.7933 74.261 40.318C75.0816 39.8532 75.7564 39.169 76.2098 38.3421C76.6755 37.4535 76.9187 36.4653 76.9187 35.462C76.9187 34.4588 76.6755 33.4705 76.2098 32.5819C75.7564 31.755 75.0816 31.0708 74.261 30.606C73.4072 30.142 72.4508 29.8989 71.479 29.8989C70.5072 29.8989 69.5509 30.142 68.697 30.606C67.8771 31.0711 67.2029 31.7552 66.7499 32.5819C66.2854 33.4709 66.0428 34.459 66.0428 35.462C66.0428 36.465 66.2854 37.4532 66.7499 38.3421C67.2033 39.169 67.8782 39.8532 68.6987 40.318C69.5478 40.795 70.5078 41.039 71.4816 41.0251H71.4883ZM71.4883 44.4525C69.7894 44.478 68.1113 44.0767 66.6078 43.2852C65.2001 42.5466 64.0231 41.4345 63.2058 40.071C62.4 38.6692 61.976 37.0806 61.976 35.4637C61.976 33.8468 62.4 32.2582 63.2058 30.8564C64.0231 29.4929 65.2001 28.3808 66.6078 27.6422C68.1179 26.8749 69.7878 26.475 71.4816 26.475C73.1754 26.475 74.8453 26.8749 76.3553 27.6422C77.7728 28.3988 78.9581 29.5263 79.7845 30.9042C80.611 32.2821 81.0475 33.8587 81.0475 35.4654C81.0475 37.0722 80.611 38.6487 79.7845 40.0266C78.9581 41.4046 77.7728 42.5321 76.3553 43.2886C74.8547 44.0809 73.1783 44.4812 71.4816 44.4525H71.4883Z" fill="white"/>
</svg>
